<svg xmlns="http://www.w3.org/2000/svg" xmlns:xlink="http://www.w3.org/1999/xlink" xmlns:lucid="lucid" width="850" height="254.7"><g transform="translate(-575 -374.99999999999994)" lucid:page-tab-id="0_0"><path d="M809 500h82M809.13 500H804M890.87 500H896M1109 500h82M1109.13 500H1104M1190.87 500h5.13" stroke="#fff" stroke-width="10" fill="none"/><path d="M800 431.6a12.67 12.67 0 0 0-4.64-9.8l-21.97-18a16.8 16.8 0 0 0-10.65-3.8H631a14.25 14.25 0 0 0-10.2 4.3l-16.6 17a14.73 14.73 0 0 0-4.2 10.3v141.5a14.73 14.73 0 0 0 4.2 10.3l16.6 17a14.25 14.25 0 0 0 10.2 4.3h138a14.25 14.25 0 0 0 10.2-4.3l16.6-17a14.73 14.73 0 0 0 4.2-10.28z" stroke="#fff" stroke-width="10" fill-opacity="0"/><use xlink:href="#a" transform="matrix(1,0,0,1,600,400) translate(65.54666666666672 138.97999999999993)"/><path d="M1100 431.6a12.67 12.67 0 0 0-4.64-9.8l-21.97-18a16.8 16.8 0 0 0-10.65-3.8H931a14.25 14.25 0 0 0-10.2 4.3l-16.6 17a14.73 14.73 0 0 0-4.2 10.3v141.5a14.73 14.73 0 0 0 4.2 10.3l16.6 17a14.25 14.25 0 0 0 10.2 4.3h138a14.25 14.25 0 0 0 10.2-4.3l16.6-17a14.73 14.73 0 0 0 4.2-10.28z" stroke="#fff" stroke-width="10" fill-opacity="0"/><use xlink:href="#b" transform="matrix(1,0,0,1,900,400) translate(64.26666666666674 138.97999999999993)"/><path d="M1400 431.6a12.67 12.67 0 0 0-4.64-9.8l-21.97-18a16.8 16.8 0 0 0-10.65-3.8H1231a14.25 14.25 0 0 0-10.2 4.3l-16.6 17a14.73 14.73 0 0 0-4.2 10.3v141.5a14.73 14.73 0 0 0 4.2 10.3l16.6 17a14.25 14.25 0 0 0 10.2 4.3h138a14.25 14.25 0 0 0 10.2-4.3l16.6-17a14.73 14.73 0 0 0 4.2-10.28z" stroke="#fff" stroke-width="10" fill-opacity="0"/><use xlink:href="#c" transform="matrix(1,0,0,1,1200,399.99999999999994) translate(65.06666666666672 138.97999999999993)"/><defs><path fill="#fff" d="M261-700h124L641 0H503l-57-155H200L143 0H5zm155 433c-32-88-60-180-95-266l-90 266h185" id="d"/><use transform="matrix(0.10666666666666648,0,0,0.10666666666666648,0,0)" xlink:href="#d" id="a"/><path fill="#fff" d="M65-700h439l100 100v196l-40 41 71 72v183L527 0H65v-700zm369 293l36-36v-108l-35-35H198v179h236zm24 293l43-43v-98l-43-43H198v184h260" id="e"/><use transform="matrix(0.10666666666666648,0,0,0.10666666666666648,0,0)" xlink:href="#e" id="b"/><path fill="#fff" d="M55-115v-470l115-115h342l113 113v107H489v-57l-47-47H242l-51 51v366l51 51h200l47-47v-57h136v107L512 0H170" id="f"/><use transform="matrix(0.10666666666666648,0,0,0.10666666666666648,0,0)" xlink:href="#f" id="c"/></defs></g></svg>